<?xml version="1.0" standalone="no"?>
<!DOCTYPE svg PUBLIC "-//W3C//DTD SVG 20010904//EN"
 "http://www.w3.org/TR/2001/REC-SVG-20010904/DTD/svg10.dtd">
<svg version="1.0" xmlns="http://www.w3.org/2000/svg"
 width="639.000000pt" height="418.000000pt" viewBox="0 0 639.000000 418.000000"
 preserveAspectRatio="xMidYMid meet">

<g transform="translate(0.000000,418.000000) scale(0.100000,-0.100000)"
fill="#000000" stroke="none">
<path d="M2167 4153 c-3 -5 -87 -235 -187 -513 -101 -278 -185 -510 -187 -516
-2 -6 22 -28 54 -49 32 -21 237 -168 455 -327 l398 -288 317 231 c175 128 396
288 490 357 l172 125 -33 46 c-19 25 -145 199 -280 386 -136 187 -251 341
-256 343 -4 2 -30 -12 -57 -32 l-48 -34 -415 139 c-228 76 -416 139 -417 139
-1 0 -4 -3 -6 -7z"/>
<path d="M580 3820 c-212 -159 -384 -294 -382 -300 1 -6 173 -231 382 -500
l381 -490 107 78 c59 43 233 170 387 282 154 111 283 205 287 209 11 10 -316
451 -552 744 -118 147 -217 267 -220 267 -3 0 -178 -131 -390 -290z"/>
<path d="M1390 2679 c-212 -154 -386 -283 -388 -288 -3 -8 58 -197 211 -663
l81 -248 481 0 481 0 63 193 c186 570 232 720 224 727 -4 4 -174 128 -378 275
-203 147 -375 272 -380 276 -6 4 -174 -111 -395 -272z m330 -2 c9 -7 25 -25
38 -41 12 -16 22 -24 22 -18 0 6 14 24 31 41 46 47 98 44 173 -10 48 -34 63
-40 98 -37 35 2 42 0 43 -17 4 -44 18 -63 69 -99 69 -47 94 -99 72 -150 -8
-18 -19 -37 -25 -40 -19 -12 -12 -23 19 -30 17 -3 42 -17 55 -30 30 -30 32
-71 8 -163 -17 -61 -17 -66 -1 -94 17 -29 17 -30 -5 -38 -30 -12 -54 -40 -63
-76 -11 -49 -43 -104 -69 -121 -24 -16 -80 -16 -116 0 -13 6 -16 -1 -17 -39
-1 -80 -56 -116 -171 -114 -44 1 -57 -3 -79 -25 l-28 -26 -26 26 c-21 22 -34
26 -79 25 -116 -1 -171 35 -173 113 -1 41 -2 43 -24 35 -77 -29 -136 6 -167
101 -20 62 -39 88 -73 101 -22 8 -22 10 -8 31 20 28 20 65 1 111 -8 20 -15 57
-15 82 0 53 30 91 80 101 16 4 30 8 30 10 0 2 -11 20 -25 40 -14 20 -25 43
-25 51 0 37 32 83 86 124 50 38 59 50 62 81 3 35 3 35 45 31 36 -4 50 1 101
36 46 32 68 41 100 41 22 0 48 -6 56 -13z"/>
<path d="M1663 2409 c-108 -42 -173 -136 -181 -262 -4 -71 -2 -82 27 -142 38
-76 94 -128 164 -151 147 -49 294 10 364 145 126 242 -118 509 -374 410z m7
-214 c0 -209 16 -245 111 -245 83 0 99 41 99 245 l0 155 25 0 25 0 0 -177 c0
-196 -6 -221 -67 -260 -40 -27 -142 -25 -180 3 -60 45 -68 72 -71 262 l-4 172
31 0 31 0 0 -155z m168 138 c-2 -13 -14 -19 -41 -21 -50 -4 -52 -32 -2 -32 24
0 35 -5 35 -15 0 -10 -11 -15 -35 -15 -28 0 -35 -4 -35 -20 0 -17 7 -20 41
-20 33 0 40 -3 37 -17 -3 -15 -14 -18 -63 -18 l-60 0 -3 88 -3 87 66 0 c58 0
66 -2 63 -17z m0 -241 c2 -46 -2 -71 -13 -88 -26 -40 -92 -28 -108 19 -5 13
-1 17 18 17 14 0 25 -4 25 -10 0 -5 7 -10 15 -10 11 0 15 12 15 50 l0 50 -40
0 c-27 0 -40 4 -40 13 0 23 13 28 70 25 l55 -3 3 -63z"/>
<path d="M4425 2396 c-60 -27 -77 -56 -87 -158 -14 -133 -2 -327 23 -367 41
-67 157 -90 239 -48 73 36 84 65 88 242 6 230 -13 296 -95 331 -41 18 -129 17
-168 0z m103 -288 c-3 -173 -5 -203 -18 -203 -13 0 -15 29 -18 190 -1 104 0
195 2 202 3 7 12 13 21 13 13 0 15 -25 13 -202z"/>
<path d="M3060 2105 l0 -295 130 0 130 0 0 60 0 60 -55 0 -55 0 0 64 0 65 48
3 47 3 0 50 0 50 -47 3 -48 3 0 60 0 59 50 0 50 0 0 55 0 55 -125 0 -125 0 0
-295z"/>
<path d="M3420 2158 c0 -273 5 -295 70 -333 46 -26 160 -28 207 -2 63 34 68
54 71 330 l4 247 -75 0 -75 0 -4 -244 c-1 -134 -6 -248 -10 -251 -4 -4 -14 -5
-23 -2 -13 6 -15 40 -15 252 l0 245 -75 0 -75 0 0 -242z"/>
<path d="M3882 2108 l3 -293 73 -3 72 -3 0 130 c0 131 6 155 35 131 11 -9 15
-43 17 -133 l3 -122 68 -3 67 -3 0 129 c0 115 -2 130 -20 150 -12 12 -25 22
-30 22 -6 0 -10 5 -10 10 0 6 6 10 14 10 29 0 46 42 46 113 0 133 -34 157
-220 157 l-120 0 2 -292z m193 127 c0 -53 -2 -60 -20 -60 -18 0 -20 8 -23 63
-3 61 -2 63 20 60 21 -3 23 -8 23 -63z"/>
<path d="M4800 2105 l0 -295 75 0 75 0 0 119 0 118 61 6 c49 4 67 11 88 31 24
24 26 35 29 119 7 172 -21 197 -213 197 l-115 0 0 -295z m198 132 c3 -59 -8
-87 -34 -87 -11 0 -14 18 -14 76 0 72 1 75 23 72 19 -3 22 -10 25 -61z"/>
<path d="M5230 2105 l0 -295 130 0 130 0 0 60 0 60 -55 0 -55 0 0 65 0 65 50
0 50 0 0 55 0 55 -50 0 -51 0 3 58 3 57 48 3 47 3 0 55 0 54 -125 0 -125 0 0
-295z"/>
<path d="M5622 2308 c-7 -51 -23 -178 -37 -283 -14 -104 -25 -196 -25 -203 0
-10 19 -12 78 -10 l77 3 3 53 c3 50 4 52 33 52 26 0 29 -3 29 -32 0 -74 4 -78
87 -78 l76 0 -6 33 c-2 17 -22 150 -43 295 l-38 262 -111 0 -112 0 -11 -92z
m143 -191 l8 -99 -24 4 c-13 1 -24 8 -24 13 2 68 19 195 25 189 4 -5 11 -53
15 -107z"/>
<path d="M6022 2108 l3 -293 63 -3 62 -3 0 123 c0 71 4 118 9 113 5 -6 21 -53
36 -105 39 -137 35 -131 108 -128 l62 3 3 293 2 292 -65 0 -64 0 -3 -122 -3
-123 -41 120 -41 120 -66 3 -67 3 2 -293z"/>
<path d="M764 2247 c-109 -81 -282 -207 -561 -410 -101 -72 -181 -137 -179
-142 4 -13 533 -745 549 -762 9 -9 82 40 307 203 162 118 296 219 298 224 2 6
-3 29 -12 52 -14 41 -174 532 -252 778 -20 63 -40 118 -43 123 -4 4 -52 -26
-107 -66z"/>
<path d="M2466 1683 c-53 -164 -101 -308 -106 -320 l-10 -23 -569 0 -570 0
-111 -342 c-61 -189 -136 -417 -166 -508 -29 -90 -50 -167 -46 -171 7 -6 887
-300 906 -303 12 -1 15 10 176 504 73 223 135 408 139 413 4 4 47 -47 95 -113
48 -66 91 -120 96 -120 12 0 780 560 780 568 0 5 -501 696 -515 710 -1 2 -46
-131 -99 -295z"/>
<path d="M5231 1643 c-19 -10 -44 -31 -55 -46 -20 -27 -21 -42 -21 -237 0
-229 1 -234 69 -284 39 -30 163 -29 203 0 66 49 68 57 71 272 3 217 -3 243
-61 286 -40 29 -158 34 -206 9z m117 -268 c1 -99 0 -190 -3 -202 -6 -26 -30
-30 -39 -7 -8 22 -8 379 1 388 4 4 14 5 23 4 13 -3 15 -30 18 -183z"/>
<path d="M3960 1426 c0 -123 -3 -231 -6 -240 -3 -9 -17 -16 -30 -16 -22 0 -24
-4 -24 -56 l0 -57 74 6 c85 6 113 18 126 53 6 14 10 140 10 280 l0 254 -75 0
-75 0 0 -224z"/>
<path d="M4222 1400 c4 -233 5 -251 24 -277 36 -48 81 -68 154 -68 77 1 122
21 150 68 18 29 20 52 20 280 l0 247 -75 0 -75 0 -2 -247 c-3 -213 -5 -248
-18 -248 -13 0 -15 35 -18 248 l-2 247 -81 0 -81 0 4 -250z"/>
<path d="M4690 1354 l0 -297 139 5 c151 5 183 15 201 64 15 39 12 424 -3 453
-6 13 -25 34 -40 45 -25 18 -45 21 -163 24 l-134 4 0 -298z m188 184 c13 -13
17 -335 4 -354 -4 -6 -15 -13 -24 -17 -17 -6 -18 7 -18 188 0 199 4 217 38
183z"/>
<path d="M5015 905 c-56 -15 -99 -57 -109 -107 -10 -50 -7 -350 4 -390 37
-131 260 -142 326 -16 11 20 14 74 14 221 0 185 -1 196 -23 227 -43 64 -123
89 -212 65z m85 -295 c0 -200 -4 -225 -35 -200 -12 10 -15 47 -15 192 0 181 7
222 35 212 13 -5 15 -38 15 -204z"/>
<path d="M3711 651 c4 -235 5 -251 25 -278 36 -48 81 -68 154 -68 77 1 122 21
150 68 18 29 20 52 20 280 l0 247 -75 0 -75 0 -2 -247 c-3 -213 -5 -248 -18
-248 -13 0 -15 35 -18 248 l-2 247 -81 0 -81 0 3 -249z"/>
<path d="M4180 605 l0 -295 60 0 60 0 0 127 c0 69 3 123 8 119 4 -4 23 -60 42
-124 l36 -117 64 0 65 0 3 293 2 292 -65 0 -65 0 -1 -122 -1 -123 -41 123 -41
122 -63 0 -63 0 0 -295z"/>
<path d="M4642 608 l3 -293 70 0 70 0 3 293 2 292 -75 0 -75 0 2 -292z"/>
<path d="M5370 605 l0 -295 60 0 60 0 0 120 c0 66 3 120 8 120 4 0 20 -46 36
-102 42 -146 36 -139 109 -136 l62 3 3 293 2 292 -65 0 -65 0 0 -116 c0 -63
-4 -113 -8 -110 -5 3 -24 55 -42 116 l-33 110 -64 0 -63 0 0 -295z"/>
</g>
</svg>
