<svg width="65" height="38" viewBox="0 0 65 38" fill="none" xmlns="http://www.w3.org/2000/svg">
<path d="M14.9189 37.3778H33.5916C37.3281 37.3792 41.0034 36.4552 44.271 34.6929C47.5385 32.9305 50.2908 30.388 52.2681 27.305H33.5916C29.8556 27.3039 26.181 28.2281 22.9141 29.9904C19.6472 31.7527 16.8956 34.2951 14.9189 37.3778Z" fill="#0BBBEF"/>
<path d="M14.9189 23.4968H33.5916C37.3276 23.4983 41.0026 22.5746 44.27 20.8131C47.5375 19.0515 50.29 16.5099 52.2681 13.4278H33.5916C29.8559 13.426 26.1814 14.3494 22.9145 16.1111C19.6475 17.8728 16.8958 20.4146 14.9189 23.4968Z" fill="#0BBBEF"/>
<path d="M52.2681 4.75005e-07H33.5916C29.8562 -0.000764788 26.1821 0.923147 22.9153 2.68471C19.6486 4.44626 16.8967 6.98748 14.919 10.069H33.5916C37.3278 10.0711 41.003 9.14782 44.2706 7.38616C47.5383 5.62451 50.2906 3.08255 52.2681 4.75005e-07Z" fill="#0BBBEF"/>
<path d="M13.9322 1.36771C16.2036 1.36771 16.5286 2.25122 16.5286 3.94588C16.5286 4.17819 16.5286 5.76622 16.5286 5.82716H19.5833C19.5833 5.82716 19.5833 7.24001 19.5833 7.59037C19.5833 8.18446 19.0428 8.39391 18.4319 8.3901C17.821 8.38629 17.257 8.3901 16.5365 8.3901C16.5365 9.37644 16.5365 13.0095 16.5365 13.6493C16.5365 14.906 17.7427 15.0964 18.4319 15.0964C18.8293 15.0973 19.2222 15.0141 19.5833 14.8527V17.4423C19.2054 17.5241 18.8191 17.5637 18.4319 17.5603C16.3328 17.5603 13.8969 17.05 13.8969 13.6493C13.8969 13.2685 13.9204 2.81865 13.9204 2.60538L13.9322 1.36771Z" fill="white"/>
<path d="M35.5655 27.4612C35.9528 27.4612 36.3313 27.5728 36.6534 27.7821C36.9754 27.9913 37.2263 28.2887 37.3745 28.6366C37.5227 28.9845 37.5615 29.3674 37.486 29.7367C37.4104 30.1061 37.2239 30.4454 36.9501 30.7117C36.6762 30.978 36.3273 31.1593 35.9475 31.2328C35.5677 31.3063 35.1739 31.2686 34.8161 31.1245C34.4583 30.9803 34.1525 30.7363 33.9374 30.4231C33.7222 30.11 33.6074 29.7419 33.6074 29.3653C33.6074 28.8603 33.8137 28.3759 34.1809 28.0189C34.5481 27.6618 35.0462 27.4612 35.5655 27.4612Z" fill="white"/>
<path d="M5.68062 7.99739C6.31419 7.92921 6.95521 8.01733 7.54453 8.25361C8.13384 8.48989 8.65245 8.86672 9.05249 9.34931C9.1367 9.43788 9.18968 9.55024 9.20377 9.67007C9.21785 9.78991 9.1923 9.911 9.13082 10.0158C9.08124 10.1129 9.00475 10.1947 8.90996 10.2519C8.81517 10.3091 8.70585 10.3394 8.59429 10.3395C6.81241 10.3395 2.91184 10.3395 2.71994 10.3395C3.29171 9.04465 4.32951 8.14972 5.68062 7.99739ZM11.8134 13.7859H11.5824C10.7561 13.7859 9.7065 13.7859 8.89193 13.7859L8.68828 13.9954C8.3118 14.3701 7.85198 14.6559 7.34417 14.8309C6.83635 15.0058 6.29406 15.0652 5.75894 15.0046C5.03828 14.9287 4.35778 14.6437 3.80599 14.1866C3.2542 13.7295 2.85667 13.1214 2.66512 12.4416H9.61643C10.8461 12.4416 11.692 11.4591 11.7351 10.2671C11.7671 9.59485 11.6086 8.92698 11.2769 8.33632C10.7186 7.49938 9.95386 6.81149 9.05237 6.33527C8.15088 5.85904 7.14124 5.60959 6.11532 5.60962C5.72087 5.61166 5.3275 5.64991 4.94045 5.72387C4.57317 5.80699 4.2131 5.91776 3.86348 6.05518C3.35657 6.25338 2.87546 6.50903 2.43014 6.81683C1.4831 7.5049 0.75981 8.44357 0.346705 9.52068C0.129214 10.1573 0.0129979 10.8226 0.00207613 11.4934C-0.0120389 12.0428 0.045865 12.5918 0.17439 13.1271C0.552495 14.5007 1.42168 15.6983 2.62595 16.505L2.73952 16.5812L2.88834 16.6726L3.05282 16.7678C3.81609 17.1958 4.66533 17.4586 5.54259 17.5383C6.41985 17.6181 7.30447 17.5128 8.13608 17.2298C8.96769 16.9467 9.72672 16.4925 10.3613 15.8982C10.996 15.3039 11.4913 14.5834 11.8134 13.7859Z" fill="white"/>
<path d="M50.4158 19.342C49.891 19.3649 48.8493 19.342 47.8036 19.342C47.8036 19.342 47.8036 25.816 47.8036 26.1969C47.8036 28.0515 46.4486 28.5999 45.2072 28.5999C43.9657 28.5999 42.6185 28.0134 42.6185 26.1969C42.6185 25.7703 42.5559 20.9453 42.552 19.342H39.9868C39.9868 19.342 39.9868 26.1131 40.0181 27.2974C40.0456 28.9807 40.9815 30.0889 42.5128 30.702C43.3628 31.0516 44.2764 31.2318 45.1993 31.2318C46.1223 31.2318 47.0358 31.0516 47.8859 30.702C49.5072 30.0584 50.4118 28.8741 50.4118 27.1147C50.4118 24.7345 50.4118 19.3382 50.4118 19.3382" fill="white"/>
<path d="M58.9296 28.5999C58.2325 28.5999 57.5511 28.3989 56.9715 28.0223C56.3919 27.6457 55.9401 27.1104 55.6733 26.4841C55.4066 25.8578 55.3368 25.1687 55.4728 24.5039C55.6088 23.839 55.9444 23.2283 56.4374 22.749C56.9303 22.2696 57.5583 21.9432 58.242 21.811C58.9257 21.6787 59.6344 21.7466 60.2785 22.006C60.9225 22.2654 61.473 22.7047 61.8603 23.2683C62.2475 23.832 62.4543 24.4946 62.4543 25.1725C62.4574 25.6235 62.3683 26.0705 62.1923 26.4877C62.0163 26.9049 61.7568 27.284 61.4289 27.6028C61.101 27.9217 60.7112 28.174 60.2821 28.3452C59.8531 28.5164 59.3934 28.603 58.9296 28.5999ZM64.8432 20.0847V19.483V19.2659H64.4085C63.5626 19.2659 62.5287 19.8295 62.4503 20.4693C60.1006 18.6109 56.4898 18.9994 54.4847 21.0977C53.4714 22.1505 52.8823 23.5232 52.8255 24.9641C52.7687 26.405 53.2479 27.8175 54.1753 28.9427C56.106 31.2733 59.7912 32.0159 62.4503 29.9747C62.4503 30.6411 63.5312 31.2467 64.4085 31.2467H64.8432V30.9001V20.0847Z" fill="white"/>
<path d="M27.4979 14.9283C26.9387 14.9243 26.3885 14.791 25.8928 14.5394C25.397 14.2878 24.97 13.925 24.6469 13.4812C24.2697 12.9238 24.0695 12.2709 24.0712 11.6037C24.0587 10.7058 24.4136 9.8399 25.0577 9.19642C25.7018 8.55294 26.5824 8.18463 27.5057 8.17251C28.4291 8.16039 29.3196 8.50545 29.9813 9.13179C30.643 9.75813 31.0218 10.6144 31.0343 11.5123C31.0422 11.9646 30.9565 12.4137 30.7822 12.833C30.6078 13.2524 30.3485 13.6333 30.0196 13.9531C29.6907 14.2729 29.299 14.5251 28.8678 14.6946C28.4366 14.8641 27.9747 14.9475 27.5096 14.9398L27.4979 14.9283ZM33.4388 5.59433H32.9767C32.17 5.59433 31.1909 6.11225 31.046 6.7368C30.5335 6.38377 29.9699 6.10656 29.3738 5.91422C28.2808 5.55833 27.1062 5.5126 25.9875 5.78237C24.8687 6.05215 23.8522 6.62627 23.0569 7.43752C22.5291 7.99255 22.1121 8.63825 21.8272 9.34164C21.5199 10.0663 21.3629 10.8428 21.3651 11.6266C21.3662 11.9132 21.3871 12.1995 21.4277 12.4834C21.5029 12.9463 21.6344 13.3989 21.8194 13.8316C22.3834 15.2163 23.4595 16.3459 24.8363 16.9984C26.2131 17.6509 27.7911 17.7792 29.2602 17.358C29.8919 17.1594 30.4898 16.8706 31.0343 16.5011C31.0343 17.9521 30.6857 18.3024 30.4977 18.6718C30.1556 19.2258 29.661 19.6757 29.0698 19.9707C28.4786 20.2658 27.8144 20.3942 27.1521 20.3415C26.4898 20.2888 25.8558 20.0571 25.3218 19.6726C24.7878 19.2881 24.3749 18.766 24.1299 18.1653H21.463C21.769 19.4871 22.5288 20.6681 23.6172 21.5139C24.7055 22.3598 26.0576 22.8201 27.4509 22.819C28.4413 22.8542 29.4241 22.6391 30.3034 22.1945C31.1827 21.75 31.9284 21.0913 32.4676 20.2827C32.8083 19.7914 33.3605 18.9384 33.4036 16.9429C33.4036 16.6497 33.4388 5.64003 33.4388 5.59433Z" fill="white"/>
</svg>
