<?xml version="1.0" standalone="no"?>
<!DOCTYPE svg PUBLIC "-//W3C//DTD SVG 20010904//EN"
 "http://www.w3.org/TR/2001/REC-SVG-20010904/DTD/svg10.dtd">
<svg version="1.0" xmlns="http://www.w3.org/2000/svg"
 width="196.000000pt" height="196.000000pt" viewBox="0 0 196.000000 196.000000"
 preserveAspectRatio="xMidYMid meet">

<g transform="translate(0.000000,196.000000) scale(0.100000,-0.100000)"
fill="#000000" stroke="none">
<path d="M845 1953 c-85 -13 -200 -49 -284 -89 -208 -98 -367 -257 -466 -466
-71 -151 -89 -236 -89 -418 0 -179 18 -266 84 -407 290 -621 1099 -766 1581
-284 482 482 337 1291 -284 1581 -126 59 -229 82 -382 85 -71 2 -143 1 -160
-2z m384 -62 c347 -102 601 -374 673 -721 26 -124 21 -315 -11 -435 -85 -315
-351 -581 -666 -666 -120 -32 -311 -37 -435 -11 -350 72 -620 326 -722 678
-20 69 -23 100 -22 249 0 156 2 177 28 260 104 340 365 580 717 660 97 22 341
14 438 -14z"/>
<path d="M907 1824 c6 -54 5 -56 -18 -52 -17 2 -25 10 -27 28 -5 49 -13 70
-24 70 -11 0 -5 -90 7 -110 9 -15 71 -12 84 4 16 19 3 116 -15 116 -9 0 -11
-14 -7 -56z"/>
<path d="M1000 1815 l0 -65 39 0 c47 0 65 19 65 67 0 42 -23 63 -71 63 l-33 0
0 -65z m68 33 c27 -27 7 -78 -30 -78 -19 0 -23 25 -12 68 7 24 24 28 42 10z"/>
<path d="M743 1823 c3 -17 9 -43 13 -58 7 -26 5 -28 -21 -21 -20 5 -26 3 -23
-6 7 -20 57 -22 65 -3 9 25 -10 108 -26 113 -11 4 -13 -2 -8 -25z"/>
<path d="M1181 1832 c-25 -20 -31 -73 -11 -97 19 -23 76 -19 94 7 23 33 20 74
-6 92 -29 21 -51 20 -77 -2z m53 -8 c17 -7 21 -50 7 -72 -11 -18 -41 -12 -54
9 -8 13 -6 24 6 43 19 29 19 29 41 20z"/>
<path d="M830 1705 c-147 -33 -265 -98 -371 -204 -290 -290 -291 -749 -4
-1036 119 -118 240 -183 399 -212 151 -27 307 -4 451 66 391 193 528 666 304
1049 -19 31 -70 93 -114 137 -88 88 -185 146 -310 185 -92 28 -264 36 -355 15z
m265 -31 c27 -3 85 -19 128 -34 478 -175 614 -794 252 -1155 -362 -363 -980
-226 -1156 255 -71 194 -51 422 53 598 42 73 177 208 250 250 76 45 182 81
270 91 72 9 106 8 203 -5z"/>
<path d="M946 1644 c-9 -8 -16 -23 -16 -33 0 -21 30 -51 52 -51 19 0 48 32 48
53 0 21 -27 47 -50 47 -10 0 -26 -7 -34 -16z"/>
<path d="M744 1468 l-60 -83 -94 -30 -93 -30 -23 -66 c-14 -42 -19 -71 -13
-80 14 -22 10 -37 -10 -44 -13 -4 -27 -27 -40 -67 -12 -34 -21 -67 -21 -73 0
-6 25 -44 55 -85 l55 -75 0 -102 0 -102 57 -40 c33 -24 68 -41 84 -41 20 0 28
-6 33 -24 3 -14 30 -41 62 -64 l56 -40 94 31 94 31 96 -31 96 -32 59 42 c45
32 59 48 59 68 0 22 3 25 29 21 22 -3 42 6 85 37 l56 42 0 100 0 101 55 76
c30 42 55 83 55 91 0 40 -36 124 -57 134 -25 11 -29 27 -12 44 7 7 3 31 -13
79 l-23 69 -95 31 -95 30 -58 82 -59 82 -71 0 c-51 0 -75 -4 -89 -17 -17 -15
-19 -15 -36 0 -14 13 -37 17 -88 17 l-70 0 -60 -82z m76 -103 c0 -35 0 -35
-25 -19 l-25 16 23 19 c28 24 27 25 27 -16z m370 0 c0 -1 -11 -10 -25 -19
l-25 -16 0 35 0 35 25 -16 c14 -9 25 -18 25 -19z m-434 -18 l59 -33 3 -56 3
-56 -50 16 c-50 16 -50 16 -61 71 -6 31 -14 64 -16 74 -7 23 -6 22 62 -16z
m500 -41 c-7 -37 -16 -69 -19 -72 -3 -3 -26 -12 -52 -19 l-46 -14 3 56 3 56
60 33 c32 18 61 32 62 30 2 -2 -3 -33 -11 -70z m-576 29 c0 -8 -20 -26 -45
-41 -25 -14 -45 -29 -45 -33 0 -4 24 -15 54 -24 l54 -18 -40 -122 c-22 -67
-44 -125 -47 -130 -4 -4 -27 -1 -50 8 -69 24 -72 21 -48 -34 17 -41 18 -52 8
-65 -11 -14 -20 -7 -62 52 -27 37 -47 72 -45 78 3 7 10 31 17 54 8 25 23 48
38 58 14 9 28 17 30 19 2 1 -2 16 -8 32 -11 24 -10 39 5 85 l18 57 75 23 c79
24 91 24 91 1z m17 -90 c-1 -1 -17 2 -36 7 l-34 9 29 20 29 19 7 -27 c4 -15 6
-28 5 -28z m604 8 c-18 -8 -35 -13 -36 -11 -2 2 -1 15 2 30 5 27 5 27 37 11
l31 -16 -34 -14z m-525 -59 c13 -3 24 -9 24 -12 0 -3 -19 -63 -42 -133 l-42
-127 -30 11 c-17 5 -35 13 -40 17 -4 5 11 65 34 135 33 98 45 125 57 121 8 -4
26 -9 39 -12z m403 -136 c24 -73 46 -138 48 -143 5 -14 -236 -188 -252 -182
-6 3 -64 42 -127 87 l-115 81 46 144 46 145 155 0 156 0 43 -132z m-590 -114
c3 -3 -4 -14 -16 -25 l-20 -21 -12 32 c-11 32 -10 32 17 25 15 -4 29 -9 31
-11z m841 11 c0 -2 -5 -16 -12 -30 -11 -24 -12 -24 -30 -9 -23 21 -23 31 0 37
25 7 42 8 42 2z m-737 -44 l28 -11 -30 -43 c-32 -47 -23 -45 -140 -31 l-45 6
55 49 c57 51 68 54 132 30z m707 -31 c44 -39 51 -50 35 -51 -11 0 -46 -4 -77
-8 l-57 -7 -31 43 -31 43 23 9 c13 4 30 11 38 14 31 12 47 5 100 -43z m-451
-165 c1 -5 -9 -23 -22 -38 l-22 -28 -107 76 c-60 42 -108 81 -108 86 0 5 10
23 21 38 l21 29 109 -77 c59 -42 108 -80 108 -86z m331 95 c0 -3 -51 -41 -112
-84 l-111 -80 -23 30 c-13 16 -24 34 -23 39 0 6 48 45 107 87 l107 77 28 -31
c15 -18 27 -35 27 -38z m-709 -29 c0 -9 6 -33 12 -55 l12 -38 33 46 c18 25 38
46 43 46 11 0 206 -136 214 -150 2 -4 -9 -25 -25 -46 -16 -21 -30 -43 -30 -47
0 -5 25 -7 55 -5 39 2 56 -1 60 -10 8 -22 0 -27 -74 -52 -61 -21 -73 -22 -94
-11 -48 25 -87 69 -87 96 0 24 -2 25 -34 20 -27 -6 -41 -1 -80 26 l-46 33 0
87 c0 82 1 87 20 82 11 -3 20 -13 21 -22z m869 -58 l-1 -88 -49 -33 c-36 -25
-57 -33 -82 -30 -30 3 -33 0 -38 -29 -4 -24 -17 -41 -54 -67 l-48 -34 -77 25
c-42 14 -78 27 -79 29 -2 1 -1 11 3 22 5 18 12 20 60 15 30 -3 55 -2 55 3 0 5
-14 27 -30 48 -16 21 -27 42 -25 46 4 7 214 160 219 160 1 0 17 -21 36 -46 32
-46 49 -46 50 -2 0 35 20 68 40 68 19 0 20 -6 20 -87z m-800 69 c0 -4 -8 -18
-17 -31 -16 -23 -17 -23 -24 -5 -13 34 -10 44 16 44 14 0 25 -3 25 -8z m730
-9 c0 -10 -4 -24 -9 -31 -6 -10 -12 -7 -24 12 -22 33 -22 36 8 36 17 0 25 -5
25 -17z m-355 -114 l27 -41 -27 -64 c-15 -35 -29 -64 -32 -64 -2 0 -18 29 -34
64 l-30 65 27 40 c15 23 30 41 34 41 4 0 20 -19 35 -41z m-91 -111 c-6 -9 -54
-11 -54 -3 0 3 8 17 17 31 l16 26 13 -24 c7 -12 10 -26 8 -30z m150 -6 c-33
-4 -38 1 -29 35 l7 28 24 -30 24 -30 -26 -3z"/>
<path d="M925 1135 c-106 -38 -144 -170 -74 -259 68 -86 210 -76 270 20 38 62
25 159 -29 207 -22 20 -86 46 -112 46 -8 0 -33 -6 -55 -14z m102 -16 c101 -38
130 -163 56 -241 -102 -107 -290 4 -244 145 26 79 114 124 188 96z"/>
<path d="M350 1210 c-25 -25 -25 -42 -2 -63 51 -46 115 19 66 67 -21 21 -40
20 -64 -4z"/>
<path d="M1545 1210 c-20 -22 -14 -67 10 -77 51 -19 95 38 60 77 -23 25 -47
25 -70 0z"/>
<path d="M569 499 c-14 -27 1 -64 30 -72 44 -11 81 49 49 81 -20 20 -66 14
-79 -9z"/>
<path d="M1310 504 c-21 -25 -1 -68 33 -72 16 -2 35 2 43 9 17 14 18 51 2 67
-17 17 -63 15 -78 -4z"/>
<path d="M330 1600 c0 -6 17 -30 39 -52 l39 -42 36 28 c20 15 34 32 30 37 -3
5 -17 0 -31 -11 l-27 -21 -36 36 c-37 36 -50 43 -50 25z"/>
<path d="M1593 1551 c-24 -20 -43 -42 -43 -49 0 -16 10 -15 32 5 17 15 19 15
38 -2 26 -23 39 -11 16 14 -26 29 0 38 30 10 18 -17 24 -19 24 -8 0 9 -12 27
-27 41 l-28 26 -42 -37z"/>
<path d="M244 1496 c-4 -11 26 -69 62 -115 1 -1 8 0 14 4 7 5 8 11 1 19 -14
16 14 58 36 54 9 -2 18 2 20 8 2 7 -17 16 -44 23 -26 7 -56 14 -66 17 -10 3
-20 -1 -23 -10z m56 -26 c10 -6 12 -12 5 -19 -7 -7 -14 -4 -23 9 -13 21 -6 25
18 10z"/>
<path d="M1685 1438 c-27 -17 -52 -32 -54 -34 -5 -5 42 -84 51 -84 13 0 9 23
-7 44 -19 25 -19 32 0 40 10 4 20 -3 27 -19 6 -14 17 -25 25 -25 11 0 11 5 -2
30 -18 36 -19 40 -2 40 8 0 19 -11 25 -25 6 -14 16 -25 22 -25 15 0 12 11 -13
52 l-22 37 -50 -31z"/>
<path d="M174 1379 c-7 -12 -9 -10 36 -30 l35 -16 -52 -8 c-33 -4 -53 -12 -53
-20 0 -11 89 -55 111 -55 20 0 7 18 -21 30 -36 15 -33 21 17 29 20 3 38 11 40
16 5 15 -104 67 -113 54z"/>
<path d="M1748 1297 l-56 -22 15 -38 c18 -45 48 -55 93 -32 30 16 32 20 27 57
-3 22 -9 44 -14 48 -4 5 -33 -1 -65 -13z m60 -43 c-2 -10 -16 -23 -32 -29 -23
-8 -30 -6 -42 10 -14 19 -12 21 23 37 40 18 57 12 51 -18z"/>
<path d="M122 1204 c-34 -24 -28 -84 11 -102 37 -18 75 -8 89 23 15 33 3 69
-27 83 -34 16 -46 15 -73 -4z m78 -35 c15 -27 -4 -51 -38 -47 -29 4 -48 28
-39 52 9 24 64 21 77 -5z"/>
<path d="M1802 1139 c-29 -4 -56 -9 -59 -13 -10 -10 8 -97 19 -90 5 4 7 21 3
40 -5 30 -3 34 15 34 16 0 20 -6 20 -30 0 -18 5 -30 13 -30 9 0 12 11 9 36 -3
28 -1 35 9 32 8 -3 15 -19 17 -36 5 -45 22 -40 22 6 0 53 -7 59 -68 51z"/>
<path d="M83 1037 c-8 -13 -3 -14 65 -22 52 -6 62 -4 62 8 0 12 -15 16 -61 19
-34 1 -63 -1 -66 -5z"/>
<path d="M1750 976 c0 -10 9 -16 25 -16 14 0 25 -6 25 -13 0 -8 -11 -19 -25
-25 -14 -6 -25 -18 -25 -27 0 -19 5 -19 34 0 21 14 24 14 29 0 9 -21 44 -19
57 4 5 11 10 33 10 50 0 27 -4 31 -27 31 -16 0 -45 3 -65 6 -31 5 -38 4 -38
-10z m104 -25 c9 -14 -4 -41 -20 -41 -8 0 -14 8 -14 18 0 29 22 43 34 23z"/>
<path d="M80 926 c0 -40 8 -66 21 -66 5 0 9 8 9 19 0 15 10 20 50 25 67 9 64
26 -5 26 -42 0 -55 3 -55 15 0 8 -4 15 -10 15 -5 0 -10 -15 -10 -34z"/>
<path d="M158 813 c-47 -34 -60 -60 -35 -67 6 -3 38 -7 69 -10 49 -5 57 -4 52
9 -4 8 -12 15 -20 15 -17 0 -32 52 -16 58 13 4 17 32 5 31 -5 0 -29 -16 -55
-36z m22 -38 c0 -8 -7 -15 -15 -15 -16 0 -20 12 -8 23 11 12 23 8 23 -8z"/>
<path d="M1735 830 c-3 -6 1 -13 10 -16 20 -8 11 -43 -19 -66 -21 -17 -20 -18
19 -17 61 2 99 13 102 29 2 9 -18 29 -47 48 -56 36 -56 36 -65 22z m75 -61 c0
-5 -9 -9 -20 -9 -19 0 -26 11 -14 23 8 8 34 -3 34 -14z"/>
<path d="M198 668 c-73 -32 -57 -50 18 -21 13 5 11 -2 -10 -30 -16 -21 -26
-43 -22 -52 4 -13 14 -11 61 12 30 15 55 31 55 35 0 11 -18 10 -42 -3 -29 -16
-33 -4 -9 29 39 56 25 64 -51 30z"/>
<path d="M1680 660 c0 -5 21 -18 46 -29 38 -17 44 -24 39 -41 -12 -38 16 -20
34 23 20 45 16 72 -5 42 -12 -16 -16 -17 -54 -1 -46 18 -60 20 -60 6z"/>
<path d="M1636 571 c-9 -14 93 -76 105 -64 7 7 -6 21 -40 42 -57 34 -58 35
-65 22z"/>
<path d="M314 535 c-4 -17 -13 -25 -29 -25 -12 0 -28 -7 -35 -15 -10 -12 -8
-22 14 -55 l27 -41 27 20 c70 53 77 60 66 71 -8 8 -14 7 -24 -5 -23 -28 -33
-17 -26 30 8 49 -9 65 -20 20z m-4 -89 c-13 -13 -45 17 -35 34 5 8 12 6 26 -6
13 -12 16 -21 9 -28z"/>
<path d="M1568 483 c-26 -31 -29 -42 -17 -65 28 -53 76 -63 108 -22 27 34 26
50 -4 79 -28 29 -66 32 -87 8z m60 -19 c32 -22 26 -58 -10 -62 -35 -4 -60 37
-38 63 16 19 20 19 48 -1z"/>
<path d="M416 431 c-4 -5 6 -19 21 -30 19 -16 23 -25 15 -33 -8 -8 -18 -6 -37
6 -34 22 -48 10 -17 -14 22 -18 30 -40 13 -40 -4 0 -20 9 -34 20 -14 11 -28
16 -31 11 -4 -5 10 -22 30 -37 l36 -28 39 42 c22 22 39 45 39 50 0 15 -68 63
-74 53z"/>
<path d="M1477 393 c-4 -3 3 -17 15 -30 27 -29 20 -36 -21 -22 -17 6 -38 8
-47 5 -13 -5 -8 -16 26 -56 46 -55 77 -59 35 -4 l-25 33 42 -15 c67 -23 75
-12 31 46 -39 50 -45 55 -56 43z"/>
<path d="M534 290 c-22 -33 -31 -39 -50 -34 -13 3 -24 2 -24 -2 0 -15 85 -64
89 -53 2 6 -3 15 -10 20 -15 9 -14 11 28 76 9 14 10 23 4 27 -6 4 -22 -11 -37
-34z"/>
<path d="M631 229 c-24 -58 -25 -69 -10 -69 5 0 15 14 21 31 12 36 19 32 27
-18 3 -20 12 -38 19 -41 12 -4 52 75 52 104 0 27 -19 13 -31 -23 l-13 -38 -11
49 c-6 27 -16 51 -21 53 -6 2 -21 -20 -33 -48z"/>
<path d="M781 174 c-9 -38 -10 -59 -3 -66 7 -7 14 2 21 28 23 90 24 94 9 94
-10 0 -19 -20 -27 -56z"/>
</g>
</svg>
