<?xml version="1.0" standalone="no"?>
<!DOCTYPE svg PUBLIC "-//W3C//DTD SVG 20010904//EN"
 "http://www.w3.org/TR/2001/REC-SVG-20010904/DTD/svg10.dtd">
<svg version="1.0" xmlns="http://www.w3.org/2000/svg"
 width="302.000000pt" height="155.000000pt" viewBox="0 0 302.000000 155.000000"
 preserveAspectRatio="xMidYMid meet">

<g transform="translate(0.000000,155.000000) scale(0.100000,-0.100000)"
fill="#000000" stroke="none">
<path d="M463 1345 c-16 -26 -19 -36 -9 -44 9 -8 16 1 29 34 19 53 11 58 -20
10z"/>
<path d="M996 1293 c-11 -38 -21 -75 -24 -83 -3 -8 18 7 47 35 53 51 61 65 37
65 -8 0 -17 11 -20 25 -10 40 -20 30 -40 -42z"/>
<path d="M181 1227 c-12 -15 -51 -158 -51 -189 0 -10 14 -30 30 -45 36 -32 37
-38 5 -85 -14 -20 -25 -43 -25 -51 0 -19 164 -206 199 -228 16 -9 33 -30 39
-47 12 -34 95 -132 128 -150 13 -7 31 -27 40 -45 9 -17 43 -60 75 -95 32 -34
69 -76 81 -92 20 -27 48 -41 48 -22 0 4 -41 52 -90 106 -80 89 -90 104 -90
138 0 36 -1 37 -28 32 -26 -5 -35 2 -91 66 -57 66 -61 75 -55 107 l6 34 -33
-5 c-33 -5 -37 -2 -124 100 -50 57 -91 108 -93 112 -1 5 16 26 38 48 22 21 40
44 40 51 0 6 -18 22 -41 35 -40 22 -41 24 -35 63 3 22 11 58 17 80 l12 40 13
-50 c21 -81 41 -122 76 -149 20 -15 27 -26 18 -26 -9 0 -1 -12 20 -30 l35 -29
-27 -10 c-26 -10 -47 -31 -31 -31 5 0 18 -19 30 -42 11 -24 36 -64 56 -90 19
-25 32 -49 29 -53 -4 -4 10 -6 31 -3 30 3 37 1 37 -13 0 -10 -4 -20 -9 -23 -5
-3 20 -36 55 -73 35 -38 64 -74 64 -81 0 -8 8 -10 25 -6 24 6 25 5 20 -31 -2
-21 -2 -35 2 -32 14 14 123 -167 123 -203 0 -34 17 -30 55 13 21 23 61 66 88
95 l49 53 -21 35 c-28 46 -26 53 5 24 14 -14 28 -20 32 -15 4 6 16 15 27 21
10 6 46 41 79 78 l59 66 -34 37 -34 36 35 -20 c51 -30 55 -27 219 162 l52 59
-57 13 c-77 18 -81 26 -11 21 31 -1 57 0 57 3 0 3 -11 16 -25 29 -35 33 -31
51 19 84 40 27 43 32 31 50 -7 12 -21 56 -31 99 -10 46 -22 76 -29 74 -11 -5
-142 -96 -210 -146 -35 -27 -41 -28 -56 -15 -9 8 -27 16 -40 17 -42 4 -169
-25 -169 -38 0 -7 16 -25 35 -39 l34 -26 76 31 c99 42 108 35 109 -82 1 -70
-2 -83 -19 -95 -11 -8 -27 -14 -37 -14 -15 0 -18 -9 -18 -44 0 -51 -30 -95
-79 -115 -18 -8 -35 -27 -45 -49 l-16 -37 5 32 c2 18 0 35 -5 38 -5 3 -34 -1
-65 -10 -50 -15 -60 -15 -107 -1 -28 8 -56 12 -61 9 -5 -3 -6 -22 -3 -42 l5
-36 -19 41 c-13 27 -30 46 -50 54 -50 21 -82 67 -78 113 4 37 2 40 -35 54 -35
15 -38 18 -36 52 1 20 -1 50 -5 68 -7 32 14 93 33 93 4 0 41 -14 81 -30 l73
-30 33 25 c38 29 44 55 13 55 -12 0 -48 7 -82 16 -59 15 -61 15 -89 -6 -26
-19 -31 -20 -46 -7 -9 8 -53 39 -97 68 -44 30 -96 67 -116 82 -30 23 -38 25
-48 14z m679 -663 l25 -25 -60 -54 c-33 -30 -62 -54 -65 -54 -3 0 -31 24 -63
53 l-58 52 21 26 c24 32 47 38 120 32 42 -4 61 -11 80 -30z"/>
<path d="M530 1231 c0 -6 4 -13 10 -16 6 -3 7 1 4 9 -7 18 -14 21 -14 7z"/>
<path d="M1638 1133 c6 -2 12 -11 12 -19 0 -10 14 -14 50 -14 59 0 52 17 76
-200 12 -112 22 -161 34 -177 l18 -23 4 30 c2 16 1 58 -3 92 -5 35 -13 110
-19 168 -16 143 -21 150 -113 149 -39 0 -66 -3 -59 -6z"/>
<path d="M1968 1133 c6 -2 12 -11 12 -19 0 -10 13 -14 44 -14 35 0 46 -4 51
-19 3 -11 12 -22 20 -25 11 -4 15 3 15 27 0 48 -15 57 -89 56 -37 0 -60 -3
-53 -6z"/>
<path d="M2238 1133 c6 -2 12 -11 12 -18 0 -10 18 -15 62 -17 86 -4 89 -11 88
-208 -1 -85 -1 -159 1 -165 1 -5 1 -14 0 -20 -1 -5 8 1 19 14 18 21 20 37 20
191 0 167 0 169 -26 199 -25 30 -28 31 -107 30 -45 0 -76 -3 -69 -6z"/>
<path d="M2548 1133 c6 -2 12 -11 12 -19 0 -8 10 -14 25 -14 25 0 25 -1 25
-80 0 -73 2 -80 20 -80 18 0 20 7 20 80 l0 80 33 0 34 0 7 -179 c4 -120 11
-188 20 -206 11 -21 15 -23 20 -10 10 28 7 395 -4 416 -10 17 -22 19 -118 18
-59 0 -101 -3 -94 -6z"/>
<path d="M794 1054 c-18 -14 -18 -14 6 -3 31 14 36 19 24 19 -6 0 -19 -7 -30
-16z"/>
<path d="M1603 1023 c-13 -35 -30 -262 -20 -253 8 8 39 247 35 268 -3 11 -8 6
-15 -15z"/>
<path d="M1689 1045 c-11 -16 -22 -325 -13 -325 31 1 38 20 35 92 -5 134 -16
243 -22 233z"/>
<path d="M2007 1043 c-4 -3 -7 -28 -7 -55 0 -44 2 -48 25 -48 20 0 25 -6 32
-37 4 -21 6 -41 5 -45 -1 -5 2 -8 8 -8 13 0 22 40 18 81 -2 25 -10 37 -30 47
-21 10 -28 20 -28 43 0 28 -9 37 -23 22z"/>
<path d="M2287 1044 c-4 -4 -7 -65 -7 -136 0 -109 2 -130 16 -135 28 -10 34
19 32 147 -3 103 -6 125 -18 128 -9 1 -19 0 -23 -4z"/>
<path d="M2196 1024 c-9 -24 -6 -246 4 -269 5 -12 9 38 9 133 1 83 -1 152 -3
152 -2 0 -7 -7 -10 -16z"/>
<path d="M2525 1025 c-11 -24 -13 -250 -2 -261 15 -15 18 7 15 142 -2 98 -6
133 -13 119z"/>
<path d="M1906 989 c-8 -43 -7 -135 3 -184 7 -30 9 -8 10 88 0 70 -1 127 -3
127 -2 0 -6 -14 -10 -31z"/>
<path d="M619 885 c-3 -74 6 -88 90 -133 l53 -30 62 35 c70 39 84 53 80 85 -1
13 -3 34 -3 48 l-1 25 -18 -22 c-43 -57 -198 -56 -244 1 -18 21 -18 21 -19 -9z"/>
<path d="M2002 832 l3 -57 38 -3 c27 -2 37 -8 37 -20 0 -9 7 -25 14 -35 13
-16 14 -15 18 17 6 53 -6 76 -41 76 -24 0 -32 5 -37 24 -3 14 -3 29 0 34 3 5
-3 12 -15 15 -19 5 -20 1 -17 -51z"/>
<path d="M2610 811 c0 -48 4 -83 11 -87 19 -12 29 19 29 94 0 65 -2 72 -20 72
-18 0 -20 -7 -20 -79z"/>
<path d="M490 874 c0 -6 14 -23 30 -39 17 -16 30 -24 30 -19 0 6 -13 23 -30
39 -16 16 -30 24 -30 19z"/>
<path d="M1003 857 c-35 -39 -37 -53 -2 -20 18 18 31 35 28 38 -3 3 -15 -5
-26 -18z"/>
</g>
</svg>
