<?xml version="1.0" standalone="no"?>
<!DOCTYPE svg PUBLIC "-//W3C//DTD SVG 20010904//EN"
 "http://www.w3.org/TR/2001/REC-SVG-20010904/DTD/svg10.dtd">
<svg version="1.0" xmlns="http://www.w3.org/2000/svg"
 width="1024.000000pt" height="337.000000pt" viewBox="0 0 1024.000000 337.000000"
 preserveAspectRatio="xMidYMid meet">

<g transform="translate(0.000000,337.000000) scale(0.100000,-0.100000)"
fill="#000000" stroke="none">
<path d="M1261 2920 c-63 -87 -72 -181 -51 -515 17 -259 16 -457 -4 -558 -23
-119 -65 -245 -124 -370 -56 -119 -69 -128 -135 -99 -79 35 -106 84 -86 155
12 44 50 75 101 83 31 5 38 11 38 29 0 52 -72 594 -86 650 -25 96 -100 229
-177 311 -61 66 -175 154 -198 154 -5 0 -8 -385 -7 -917 l3 -918 201 -3 c145
-2 205 -6 212 -15 5 -6 17 -37 27 -67 38 -119 84 -190 197 -302 59 -60 112
-108 119 -108 19 0 138 109 196 180 64 77 117 178 134 255 l12 55 198 0 c108
0 204 3 213 6 14 6 16 96 16 920 0 669 -3 914 -11 914 -23 0 -136 -89 -201
-158 -101 -107 -160 -224 -187 -372 -22 -121 -80 -595 -73 -601 4 -3 26 -11
48 -17 49 -14 90 -53 99 -93 15 -66 -61 -149 -136 -149 -39 0 -39 0 -83 88
-55 109 -108 260 -131 372 -23 108 -24 263 -6 616 8 149 12 291 9 316 -6 49
-44 139 -75 177 l-20 25 -32 -44z m650 -1353 c-17 -17 -38 0 -105 83 -77 95
-74 79 -46 311 39 311 54 370 123 470 l32 47 3 -451 c1 -273 -2 -455 -7 -460z
m-1170 801 c43 -85 58 -152 88 -393 20 -157 25 -226 18 -240 -11 -22 -124
-156 -140 -167 -6 -3 -16 -4 -24 -1 -11 4 -13 88 -13 457 l1 451 20 -25 c12
-14 34 -50 50 -82z m620 -902 c30 -66 55 -123 57 -127 5 -12 -118 -91 -133
-86 -15 6 -115 77 -115 82 0 4 99 225 112 249 5 10 13 14 18 10 4 -5 31 -63
61 -128z m559 -216 l0 -190 -129 0 c-95 0 -131 3 -140 13 -6 8 -12 46 -13 86
l-3 72 59 24 c65 26 128 81 147 128 10 23 49 52 77 57 1 0 2 -85 2 -190z
m-1162 117 c35 -61 80 -97 147 -117 22 -7 44 -16 48 -20 5 -4 3 -44 -4 -89
l-12 -81 -133 0 c-111 0 -133 2 -138 16 -8 21 -8 215 0 293 7 59 8 62 32 59
19 -2 34 -18 60 -61z m398 -189 c35 -24 53 -48 65 -90 l8 -28 -80 0 c-72 0
-80 2 -76 18 3 9 8 35 12 57 6 38 20 65 33 65 3 0 20 -10 38 -22z m332 10 c5
-7 14 -39 19 -70 l10 -58 -74 0 c-67 0 -73 2 -73 20 0 34 29 80 63 100 38 23
41 24 55 8z m-264 -300 c4 -18 4 -70 0 -116 l-7 -83 -22 21 c-25 24 -80 127
-94 178 l-10 32 63 0 64 0 6 -32z m266 15 c0 -39 -102 -223 -122 -223 -10 0
-11 224 -1 233 3 4 33 7 65 7 49 0 58 -3 58 -17z"/>
<path d="M4489 2932 c-31 -16 -68 -46 -86 -71 -94 -122 -78 -328 31 -429 53
-49 103 -66 183 -65 68 1 149 37 184 82 18 23 18 25 2 43 -16 18 -17 18 -47
-11 -46 -43 -89 -61 -147 -61 -202 0 -295 274 -145 425 86 85 214 83 296 -6
l26 -30 19 21 c18 20 18 21 -11 51 -75 81 -207 103 -305 51z"/>
<path d="M6135 2941 c-53 -25 -109 -84 -136 -146 -34 -76 -32 -190 5 -270 15
-33 37 -70 49 -83 84 -90 242 -103 339 -29 57 44 67 62 46 84 -16 16 -19 15
-38 -9 -50 -64 -172 -88 -249 -48 -44 22 -88 70 -108 117 -19 48 -16 170 6
218 65 140 226 176 334 73 31 -29 43 -35 54 -27 7 6 13 17 13 24 0 21 -60 76
-105 96 -54 25 -157 25 -210 0z"/>
<path d="M7382 2939 c-122 -61 -186 -245 -136 -392 19 -57 83 -131 138 -159
97 -50 227 -17 298 77 118 156 68 401 -97 476 -56 26 -148 25 -203 -2z m162
-40 c56 -15 121 -85 140 -150 20 -66 20 -102 1 -167 -57 -192 -286 -218 -377
-43 -31 59 -38 142 -16 212 23 78 118 158 188 159 14 0 42 -5 64 -11z"/>
<path d="M2420 2285 l0 -665 70 0 70 0 0 665 0 665 -70 0 -70 0 0 -665z"/>
<path d="M2990 2947 c0 -18 -60 -504 -65 -534 -5 -30 -4 -33 20 -33 17 0 25 6
25 18 1 9 11 100 24 202 l23 185 30 -65 c16 -36 56 -127 88 -202 32 -76 62
-138 66 -138 4 0 44 88 90 195 46 107 86 195 89 195 3 0 14 -71 23 -157 28
-243 26 -233 54 -233 21 0 23 3 18 33 -3 17 -19 142 -35 277 -17 135 -32 249
-33 254 -2 6 -48 -95 -102 -222 -55 -128 -102 -232 -105 -232 -3 0 -45 94 -93
208 -86 201 -116 266 -117 249z"/>
<path d="M3570 2665 l0 -285 25 0 25 0 0 285 0 285 -25 0 -25 0 0 -285z"/>
<path d="M3730 2665 l0 -285 25 0 25 0 0 135 0 135 130 0 130 0 0 -135 c0
-128 1 -135 20 -135 20 0 20 7 20 285 0 278 0 285 -20 285 -19 0 -20 -7 -20
-120 l0 -120 -130 0 -130 0 0 120 0 120 -25 0 -25 0 0 -285z"/>
<path d="M4200 2665 l0 -285 25 0 25 0 0 285 0 285 -25 0 -25 0 0 -285z"/>
<path d="M4874 2935 c-13 -32 4 -45 56 -45 l50 0 0 -255 0 -255 25 0 25 0 0
255 0 254 58 3 c53 3 57 5 57 28 l0 25 -133 3 c-111 2 -133 0 -138 -13z"/>
<path d="M5220 2665 l0 -285 140 0 140 0 0 25 0 25 -115 0 -115 0 0 115 0 115
115 0 115 0 0 25 0 25 -115 0 -115 0 0 90 0 90 115 0 115 0 0 30 0 30 -140 0
-140 0 0 -285z"/>
<path d="M5590 2665 l0 -285 25 0 25 0 0 128 0 128 92 11 c86 10 94 13 124 45
37 41 49 92 34 149 -22 82 -77 109 -217 109 l-83 0 0 -285z m217 210 c34 -24
47 -76 29 -119 -18 -44 -46 -56 -132 -56 l-64 0 0 95 0 95 73 0 c48 0 80 -5
94 -15z"/>
<path d="M6510 2920 c0 -30 1 -30 55 -30 l55 0 0 -255 0 -255 25 0 25 0 0 255
0 255 55 0 c54 0 55 0 55 30 l0 30 -135 0 -135 0 0 -30z"/>
<path d="M6850 2665 l0 -285 93 0 c112 0 151 17 184 80 40 75 25 154 -39 205
l-35 27 23 25 c46 50 43 142 -6 191 -33 33 -66 42 -156 42 l-64 0 0 -285z
m185 200 c27 -26 32 -60 13 -100 -15 -34 -56 -55 -108 -55 l-40 0 0 90 0 90
55 0 c46 0 60 -4 80 -25z m31 -246 c35 -35 41 -94 15 -136 -22 -35 -68 -53
-138 -53 l-43 0 0 111 0 111 70 -4 c59 -3 74 -8 96 -29z"/>
<path d="M3733 1994 c-52 -19 -114 -80 -145 -142 -19 -40 -23 -63 -23 -147 0
-84 4 -107 22 -141 67 -125 179 -179 304 -144 53 15 123 82 156 148 24 49 28
68 27 142 -1 93 -19 149 -69 208 -65 77 -181 110 -272 76z m163 -60 c85 -40
143 -156 130 -257 -11 -76 -49 -143 -102 -176 -85 -54 -163 -49 -236 17 -57
51 -78 101 -78 187 0 143 84 244 203 245 27 0 64 -7 83 -16z"/>
<path d="M4827 1996 c-116 -42 -182 -147 -182 -291 1 -103 28 -168 97 -230
173 -156 418 -18 418 235 0 100 -27 167 -95 228 -74 68 -154 88 -238 58z m163
-66 c97 -50 145 -188 108 -311 -13 -45 -68 -114 -107 -133 -152 -77 -319 64
-297 251 3 30 15 71 25 91 23 44 76 97 111 111 42 17 118 13 160 -9z"/>
<path d="M7286 1995 c-143 -51 -218 -222 -170 -385 35 -118 114 -187 224 -197
83 -8 141 11 198 63 44 40 46 44 30 60 -16 16 -19 15 -57 -18 -92 -79 -204
-75 -288 9 -148 147 -52 423 147 423 58 0 100 -18 148 -63 29 -28 34 -30 48
-15 45 45 -95 139 -205 138 -20 -1 -54 -7 -75 -15z"/>
<path d="M8318 1995 c-56 -21 -106 -62 -134 -111 -35 -60 -45 -98 -45 -182 0
-123 57 -221 156 -268 96 -46 192 -27 271 51 60 60 88 129 88 220 1 165 -98
288 -240 300 -38 3 -72 0 -96 -10z m189 -81 c53 -43 80 -86 93 -150 32 -151
-69 -299 -205 -298 -120 1 -204 99 -205 239 0 152 87 249 217 242 52 -2 69 -8
100 -33z"/>
<path d="M2990 1985 c0 -6 -16 -134 -35 -285 -19 -151 -35 -276 -35 -277 0 -2
11 -3 24 -3 27 0 23 -16 52 243 10 86 20 157 23 157 3 0 41 -83 84 -184 43
-101 84 -191 90 -200 10 -14 26 15 97 183 47 110 88 197 91 193 3 -4 12 -54
18 -112 32 -286 31 -280 58 -280 23 0 24 3 19 38 -3 20 -20 147 -36 282 -17
134 -33 246 -35 249 -3 2 -11 -11 -19 -30 -8 -19 -53 -124 -99 -233 -70 -165
-86 -196 -95 -180 -5 10 -49 111 -97 224 -81 190 -105 239 -105 215z"/>
<path d="M4249 1713 c-57 -152 -106 -281 -108 -286 -2 -5 10 -7 25 -5 27 3 32
12 109 215 44 117 83 213 86 213 3 0 41 -95 84 -211 44 -116 85 -213 91 -216
46 -18 42 2 -63 285 -58 155 -108 282 -112 282 -4 0 -54 -125 -112 -277z"/>
<path d="M5350 1735 c-78 -210 -98 -255 -115 -257 -17 -3 -20 -11 -23 -70 -3
-67 -3 -68 23 -68 23 0 25 4 25 40 l0 40 200 0 200 0 0 -40 c0 -36 3 -40 25
-40 24 0 25 2 25 65 0 59 -2 66 -23 74 -19 7 -41 56 -121 260 -55 138 -104
251 -110 251 -6 0 -54 -115 -106 -255z m186 -63 l72 -187 -74 -3 c-41 -2 -107
-2 -148 0 l-74 3 70 193 c39 106 73 190 76 187 3 -3 38 -89 78 -193z"/>
<path d="M5772 1708 l3 -283 23 -3 22 -3 0 285 0 286 -25 0 -25 0 2 -282z"/>
<path d="M6080 1965 c0 -24 3 -25 55 -25 l55 0 0 -260 0 -260 25 0 25 0 0 260
0 260 55 0 c52 0 55 1 55 25 l0 25 -135 0 -135 0 0 -25z"/>
<path d="M6601 1968 c-5 -13 -57 -139 -115 -281 -58 -142 -106 -260 -106 -263
0 -3 12 -4 27 -2 24 3 31 14 63 93 l36 90 110 3 109 3 39 -96 c33 -83 42 -95
62 -95 13 0 24 3 24 7 0 16 -226 563 -233 563 -4 0 -11 -10 -16 -22z m60 -201
l37 -92 -75 -3 c-42 -2 -78 -1 -81 2 -2 3 13 48 34 100 21 52 41 92 44 90 2
-3 21 -47 41 -97z"/>
<path d="M7682 1708 l3 -283 23 -3 22 -3 0 260 0 261 130 0 130 0 0 -261 0
-260 23 3 22 3 3 283 2 282 -180 0 -180 0 2 -282z"/>
<path d="M8760 1705 l0 -286 23 3 c21 3 22 7 25 136 l3 132 67 1 c37 0 82 5
101 12 92 32 115 177 42 251 -31 31 -33 31 -146 34 l-115 4 0 -287z m197 225
c55 -20 73 -98 35 -149 -23 -31 -48 -39 -124 -40 l-58 -1 0 100 0 100 59 0
c32 0 72 -5 88 -10z"/>
<path d="M9120 1965 c0 -24 3 -25 55 -25 l55 0 0 -261 0 -260 23 3 22 3 3 258
2 257 55 0 c52 0 55 1 55 25 l0 25 -135 0 -135 0 0 -25z"/>
<path d="M9511 1765 c49 -124 89 -232 89 -239 0 -22 -40 -66 -60 -66 -10 0
-33 12 -50 26 -30 25 -32 26 -48 10 -16 -16 -15 -19 20 -52 28 -25 47 -34 72
-34 66 0 79 22 185 313 l98 267 -27 0 c-26 0 -29 -6 -85 -167 -32 -93 -62
-179 -68 -193 -10 -28 -4 -41 -112 238 -45 115 -49 122 -75 122 l-28 0 89
-225z"/>
<path d="M4637 1164 c-15 -15 -7 -63 12 -73 28 -15 54 8 49 44 -2 24 -9 31
-28 33 -14 2 -29 0 -33 -4z"/>
<path d="M4770 1149 c-9 -16 -8 -26 5 -45 18 -27 19 -28 46 -14 21 12 25 50 7
68 -18 18 -46 14 -58 -9z"/>
<path d="M2910 1033 c0 -4 38 -105 85 -223 47 -118 85 -224 85 -235 0 -61 -67
-86 -110 -40 -22 24 -25 24 -42 8 -18 -16 -17 -18 13 -49 51 -53 120 -53 154
0 13 19 205 529 205 543 0 3 -12 3 -26 1 -25 -3 -31 -15 -93 -190 -36 -104
-68 -188 -71 -188 -3 0 -37 85 -76 188 -66 172 -74 187 -98 190 -14 2 -26 0
-26 -5z"/>
<path d="M3390 755 l0 -285 25 0 24 0 3 129 3 130 105 -130 c96 -118 108 -129
138 -129 l34 0 -88 108 c-49 59 -106 128 -127 154 -46 55 -49 44 49 148 33 36
80 86 104 113 l43 47 -34 0 c-30 -1 -45 -13 -129 -106 l-95 -105 -3 105 c-3
105 -3 106 -27 106 l-25 0 0 -285z"/>
<path d="M3800 755 l0 -285 25 0 25 0 0 128 0 128 91 11 c81 9 94 14 121 40
37 38 52 100 38 155 -22 81 -77 108 -217 108 l-83 0 0 -285z m212 214 c11 -6
26 -26 34 -44 11 -28 12 -41 1 -72 -16 -48 -45 -63 -129 -63 l-68 0 0 95 0 95
71 0 c39 0 79 -5 91 -11z"/>
<path d="M4396 1031 c-11 -18 -226 -543 -226 -552 0 -5 10 -9 23 -9 20 0 29
14 63 93 l39 92 106 3 106 3 39 -96 c36 -87 41 -95 66 -95 l27 0 -114 282
c-63 154 -117 283 -119 285 -2 2 -7 0 -10 -6z m48 -215 c20 -50 36 -94 36 -98
0 -4 -36 -8 -80 -8 -44 0 -80 2 -80 5 0 6 70 176 77 188 7 12 7 11 47 -87z"/>
<path d="M4710 755 l0 -285 25 0 25 0 0 285 0 285 -25 0 -25 0 0 -285z"/>
<path d="M4870 755 l0 -285 25 0 25 0 0 135 0 135 125 0 125 0 0 -135 0 -135
25 0 25 0 0 285 0 285 -25 0 -25 0 0 -120 0 -120 -125 0 -125 0 0 120 0 120
-25 0 -25 0 0 -285z"/>
<path d="M5350 753 c0 -246 2 -285 14 -273 8 8 82 107 165 219 l151 204 0
-216 0 -217 25 0 25 0 0 288 c-1 227 -3 284 -13 271 -7 -8 -79 -106 -161 -217
-81 -111 -152 -205 -157 -208 -5 -3 -9 90 -9 215 0 214 -1 221 -20 221 -20 0
-20 -7 -20 -287z"/>
</g>
</svg>
